<?xml version="1.0" encoding="UTF-8" standalone="no"?>
<!-- Created with Inkscape (http://www.inkscape.org/) -->

<svg
   width="32"
   height="32"
   viewBox="0 0 32 32"
   version="1.1"
   id="svg5"
   inkscape:version="1.1.2 (0a00cf5339, 2022-02-04)"
   sodipodi:docname="icon.svg"
   inkscape:export-filename="/home/aqil/Dev/feel-free/static/favicon.png"
   inkscape:export-xdpi="384"
   inkscape:export-ydpi="384"
   xmlns:inkscape="http://www.inkscape.org/namespaces/inkscape"
   xmlns:sodipodi="http://sodipodi.sourceforge.net/DTD/sodipodi-0.dtd"
   xmlns="http://www.w3.org/2000/svg"
   xmlns:svg="http://www.w3.org/2000/svg">
  <sodipodi:namedview
     id="namedview7"
     pagecolor="#505050"
     bordercolor="#ffffff"
     borderopacity="1"
     inkscape:pageshadow="0"
     inkscape:pageopacity="0"
     inkscape:pagecheckerboard="1"
     inkscape:document-units="px"
     showgrid="false"
     inkscape:snap-page="true"
     inkscape:snap-global="true"
     inkscape:snap-bbox="true"
     inkscape:snap-midpoints="true"
     inkscape:zoom="8"
     inkscape:cx="-2.625"
     inkscape:cy="37.75"
     inkscape:window-width="1600"
     inkscape:window-height="864"
     inkscape:window-x="0"
     inkscape:window-y="0"
     inkscape:window-maximized="1"
     inkscape:current-layer="layer1"
     showguides="false"
     showborder="true" />
  <defs
     id="defs2" />
  <g
     inkscape:label="Layer 1"
     inkscape:groupmode="layer"
     id="layer1">
    <rect
       style="fill:#000000;stroke-linecap:round;stroke-linejoin:bevel"
       id="rect846"
       width="32"
       height="32"
       x="0"
       y="0"
       rx="12"
       ry="12" />
    <g
       aria-label="f"
       id="text5568"
       style="font-size:20px;line-height:1.25" />
    <text
       xml:space="preserve"
       style="font-size:60px;line-height:1.25;font-family:sans-serif"
       x="12.998735"
       y="17.692186"
       id="text2373"><tspan
         sodipodi:role="line"
         id="tspan2371"
         x="12.998735"
         y="17.692186" /></text>
    <g
       aria-label="Feel Free"
       id="text12699"
       style="font-size:12px;line-height:1.25;fill:#e5e5e5;fill-opacity:1"
       inkscape:transform-center-x="37.633271"
       inkscape:transform-center-y="5.4186441"
       transform="translate(0.0806352,0.58135605)">
      <g
         aria-label="ee"
         id="text22091"
         style="font-size:24px;fill:#e5e5e5;fill-opacity:1">
        <path
           id="path27681"
           style="font-family:Chapaza;-inkscape-font-specification:Chapaza;fill:#e5e5e5;fill-opacity:1"
           d="m 9.9179688,9.8125 c -1.7187501,0 -3.125,0.613281 -4.21875,1.839844 -1.078125,1.195312 -1.6171876,2.683594 -1.6171876,4.464844 0,1.71875 0.5390626,3.156249 1.6171876,4.3125 1.1015625,1.171875 2.4335935,1.757812 3.9960937,1.757812 1.4140625,0 2.6328125,-0.441406 3.6562495,-1.324219 0.228746,-0.197552 0.439047,-0.413537 0.632813,-0.644531 0.06067,0.07122 0.122973,0.141735 0.1875,0.210938 1.101562,1.171875 2.433594,1.757812 3.996094,1.757812 1.414062,0 2.632812,-0.441406 3.65625,-1.324219 1.03125,-0.890624 1.707031,-2.121093 2.027343,-3.691406 h -0.375 c -0.335937,1.125 -0.84375,2.03125 -1.523437,2.71875 -0.679688,0.6875 -1.519531,1.042969 -2.519531,1.066406 -1.15625,0.03125 -2.121094,-0.488284 -2.894532,-1.558593 C 15.765625,18.320313 15.429687,17.03125 15.53125,15.53125 h 8.472656 C 23.925781,13.796875 23.394531,12.410156 22.410156,11.371094 21.441406,10.332031 20.101562,9.8125 18.390625,9.8125 c -1.715836,0 -3.119937,0.611577 -4.212891,1.833984 -0.07738,-0.0937 -0.156257,-0.186748 -0.240234,-0.27539 C 12.96875,10.332031 11.628906,9.8125 9.9179688,9.8125 Z m -0.058594,0.527344 c 0.617187,-0.02344 1.144531,0.257812 1.582031,0.84375 0.445313,0.578124 0.738281,1.207031 0.878906,1.886718 0.15625,0.671876 0.222657,1.300782 0.199219,1.886719 H 7.09375 C 7.125,14.496094 7.1914063,14.027344 7.2929688,13.550781 7.3945313,13.058594 7.546875,12.570313 7.75,12.085938 c 0.203125,-0.500001 0.4843751,-0.910157 0.84375,-1.230469 0.375,-0.328125 0.796875,-0.5 1.265625,-0.515625 z m 8.472656,0 c 0.617188,-0.02344 1.144531,0.257812 1.582031,0.84375 0.445313,0.578124 0.738282,1.207031 0.878907,1.886718 0.15625,0.671876 0.222656,1.300782 0.199219,1.886719 h -5.425782 c 0.03125,-0.460937 0.09765,-0.929687 0.199219,-1.40625 0.101562,-0.492187 0.253906,-0.980468 0.457031,-1.464843 0.203125,-0.500001 0.484375,-0.910157 0.84375,-1.230469 0.375,-0.328125 0.796875,-0.5 1.265625,-0.515625 z M 7.0585938,15.53125 h 5.5175782 c -0.01348,0.191861 -0.02148,0.38675 -0.02148,0.585938 0,1.392844 0.354474,2.60156 1.0625,3.625 -0.04551,0.04981 -0.08956,0.100732 -0.136719,0.148437 -0.679688,0.6875 -1.519531,1.042969 -2.519531,1.066406 C 9.8046875,20.988281 8.839844,20.46875 8.0664062,19.398438 7.2929688,18.320313 6.9570313,17.03125 7.0585938,15.53125 Z"
           transform="translate(1.8763962,-0.58135605)" />
      </g>
    </g>
  </g>
</svg>
