<?xml version="1.0" encoding="UTF-8" standalone="no"?>
<!-- Created with Inkscape (http://www.inkscape.org/) -->

<svg
   width="82.585938"
   height="16.467773"
   viewBox="0 0 21.850862 4.3570985"
   version="1.1"
   id="svg5"
   inkscape:version="1.1.2 (0a00cf5339, 2022-02-04)"
   sodipodi:docname="logo.svg"
   xmlns:inkscape="http://www.inkscape.org/namespaces/inkscape"
   xmlns:sodipodi="http://sodipodi.sourceforge.net/DTD/sodipodi-0.dtd"
   xmlns="http://www.w3.org/2000/svg"
   xmlns:svg="http://www.w3.org/2000/svg">
  <sodipodi:namedview
     id="namedview7"
     pagecolor="#505050"
     bordercolor="#ffffff"
     borderopacity="1"
     inkscape:pageshadow="0"
     inkscape:pageopacity="0"
     inkscape:pagecheckerboard="1"
     inkscape:document-units="px"
     showgrid="false"
     units="px"
     width="120px"
     showborder="true"
     fit-margin-top="0"
     fit-margin-left="0"
     fit-margin-right="0"
     fit-margin-bottom="0"
     inkscape:zoom="8"
     inkscape:cx="35.5625"
     inkscape:cy="15.75"
     inkscape:window-width="1600"
     inkscape:window-height="864"
     inkscape:window-x="0"
     inkscape:window-y="0"
     inkscape:window-maximized="1"
     inkscape:current-layer="text3710" />
  <defs
     id="defs2" />
  <g
     inkscape:label="Layer 1"
     inkscape:groupmode="layer"
     id="layer1"
     transform="translate(-9.6173707,-2.0130252)">
    <g
       inkscape:label="Layer 1"
       id="layer1-5"
       transform="matrix(0.26458333,0,0,0.26458333,1.802084,0.41980344)">
      <g
         aria-label="f"
         id="text5568"
         style="font-size:20px;line-height:1.25" />
      <g
         aria-label="Feel-Free"
         id="text3710"
         style="font-size:22px;line-height:1.25">
        <path
           d="m 29.538092,6.6446724 v 0.4296875 q 1.96582,0.032227 1.955078,1.9658203 V 19.900532 q 0,1.976562 -1.955078,1.944336 v 0.429687 h 6.660156 v -0.375976 q -1.96582,0.06445 -1.96582,-1.998047 v -5.790039 h 1.987304 q 2.25586,0 2.288086,2.90039 h 0.418946 v -6.241211 h -0.418946 q -0.03223,2.857422 -2.288086,2.857422 H 34.232428 V 7.1173286 h 3.448242 q 3.501953,0 3.727539,3.3193364 l 0.418945,-0.06445 -0.236328,-3.7275386 z"
           style="font-family:Chapaza;-inkscape-font-specification:Chapaza;fill:#e5e5e5;fill-opacity:1"
           id="path18054" />
        <path
           d="m 46.317389,11.145649 q -2.363282,0 -3.867188,1.686523 -1.482422,1.643555 -1.482422,4.092774 0,2.363281 1.482422,3.953125 1.514648,1.611328 3.663086,1.611328 1.944336,0 3.351562,-1.213867 1.417969,-1.22461 1.858399,-3.383789 h -0.34375 q -0.461914,1.546875 -1.396484,2.492187 -0.934571,0.945313 -2.309571,0.977539 -1.589844,0.04297 -2.65332,-1.428711 -1.063477,-1.482422 -0.923828,-3.544922 h 7.766601 q -0.107422,-2.384765 -1.460937,-3.813476 -1.332031,-1.428711 -3.68457,-1.428711 z m -0.05371,0.483398 q 0.848632,-0.03223 1.450195,0.773438 0.612305,0.794922 0.805664,1.729492 0.214844,0.923828 0.182617,1.729492 h -4.973633 q 0.04297,-0.633789 0.182618,-1.289062 0.139648,-0.676758 0.418945,-1.342774 0.279297,-0.6875 0.773437,-1.127929 0.515625,-0.451172 1.160157,-0.472657 z"
           style="font-family:Chapaza;-inkscape-font-specification:Chapaza;fill:#e5e5e5;fill-opacity:1"
           id="path18056" />
        <path
           d="m 54.08399,11.145649 q -2.363282,0 -3.867188,1.686523 -1.482422,1.643555 -1.482422,4.092774 0,2.363281 1.482422,3.953125 1.514649,1.611328 3.663086,1.611328 1.944336,0 3.351563,-1.213867 1.417968,-1.22461 1.858398,-3.383789 h -0.34375 q -0.461914,1.546875 -1.396484,2.492187 -0.934571,0.945313 -2.309571,0.977539 -1.589843,0.04297 -2.65332,-1.428711 -1.063476,-1.482422 -0.923828,-3.544922 h 7.766602 Q 59.122076,14.003071 57.76856,12.57436 56.436529,11.145649 54.08399,11.145649 Z m -0.05371,0.483398 q 0.848633,-0.03223 1.450195,0.773438 0.612305,0.794922 0.805664,1.729492 0.214844,0.923828 0.182617,1.729492 h -4.973632 q 0.04297,-0.633789 0.182617,-1.289062 0.139648,-0.676758 0.418945,-1.342774 0.279297,-0.6875 0.773438,-1.127929 0.515625,-0.451172 1.160156,-0.472657 z"
           style="font-family:Chapaza;-inkscape-font-specification:Chapaza;fill:#e5e5e5;fill-opacity:1"
           id="path18058" />
        <path
           d="M 64.020513,11.167133 V 6.0216255 l -4.146484,0.6230469 v 0.3867187 q 1.579101,-0.290039 1.546875,1.5683594 V 19.621235 q 0,2.255859 -1.546875,2.288086 v 0.365234 h 5.65039 v -0.365234 q -1.503906,-0.03223 -1.503906,-2.288086 z"
           style="font-family:Chapaza;-inkscape-font-specification:Chapaza;fill:#e5e5e5;fill-opacity:1"
           id="path18060" />
        <path
           d="m 72.281255,6.6446724 v 0.4296875 q 1.965821,0.032227 1.955078,1.9658203 V 19.900532 q 0,1.976562 -1.955078,1.944336 v 0.429687 h 6.660157 v -0.375976 q -1.965821,0.06445 -1.965821,-1.998047 v -5.790039 h 1.987305 q 2.255859,0 2.288086,2.90039 h 0.418945 v -6.241211 h -0.418945 q -0.03223,2.857422 -2.288086,2.857422 H 76.975591 V 7.1173286 h 3.448242 q 3.501954,0 3.72754,3.3193364 l 0.418945,-0.06445 -0.236328,-3.7275386 z"
           style="font-family:Chapaza;-inkscape-font-specification:Chapaza;fill:#e5e5e5;fill-opacity:1"
           id="path18064" />
        <path
           d="m 88.201177,11.210102 -3.738281,0.601563 v 0.365234 q 1.450195,-0.225586 1.450195,1.62207 v 5.800782 q 0,2.245117 -1.450195,2.30957 v 0.365234 h 5.5 v -0.365234 q -1.47168,-0.03223 -1.47168,-2.30957 v -4.329102 q 0,-1.321289 0.633789,-2.331055 0.655274,-1.009765 1.310547,-1.084961 0.461914,-0.07519 0.837891,0.214844 0.300781,0.193359 0.580078,0.773438 0.214844,0.472656 0.494141,0.698242 0.290039,0.214844 0.719726,0.214844 0.44043,0 0.666016,-0.279297 0.236328,-0.290039 0.236328,-0.655274 0,-0.676758 -0.751953,-1.106445 -0.870117,-0.494141 -1.965821,-0.504883 -1.804687,0 -2.760742,1.536133 0,-1.170899 -0.290039,-1.536133 z"
           style="font-family:Chapaza;-inkscape-font-specification:Chapaza;fill:#e5e5e5;fill-opacity:1"
           id="path18066" />
        <path
           d="m 99.211919,11.145649 q -2.36328,0 -3.867187,1.686523 -1.482422,1.643555 -1.482422,4.092774 0,2.363281 1.482422,3.953125 1.514647,1.611328 3.663087,1.611328 1.944331,0 3.351561,-1.213867 1.41797,-1.22461 1.8584,-3.383789 h -0.34375 q -0.46191,1.546875 -1.39648,2.492187 -0.93457,0.945313 -2.30957,0.977539 -1.589851,0.04297 -2.653331,-1.428711 -1.06347,-1.482422 -0.92382,-3.544922 h 7.766601 q -0.10742,-2.384765 -1.46094,-3.813476 -1.33203,-1.428711 -3.684571,-1.428711 z m -0.0537,0.483398 q 0.848631,-0.03223 1.450191,0.773438 0.61231,0.794922 0.80567,1.729492 0.21484,0.923828 0.18262,1.729492 h -4.973641 q 0.043,-0.633789 0.18262,-1.289062 0.13965,-0.676758 0.41895,-1.342774 0.27929,-0.6875 0.77343,-1.127929 0.51563,-0.451172 1.16016,-0.472657 z"
           style="font-family:Chapaza;-inkscape-font-specification:Chapaza;fill:#e5e5e5;fill-opacity:1"
           id="path18068" />
        <path
           d="m 106.97852,11.145649 q -2.36328,0 -3.86718,1.686523 -1.48243,1.643555 -1.48243,4.092774 0,2.363281 1.48243,3.953125 1.51464,1.611328 3.66308,1.611328 1.94434,0 3.35156,-1.213867 1.41797,-1.22461 1.8584,-3.383789 h -0.34375 q -0.46191,1.546875 -1.39648,2.492187 -0.93457,0.945313 -2.30957,0.977539 -1.58985,0.04297 -2.65332,-1.428711 -1.06348,-1.482422 -0.92383,-3.544922 h 7.7666 q -0.10742,-2.384765 -1.46094,-3.813476 -1.33203,-1.428711 -3.68457,-1.428711 z m -0.0537,0.483398 q 0.84863,-0.03223 1.4502,0.773438 0.6123,0.794922 0.80566,1.729492 0.21484,0.923828 0.18262,1.729492 h -4.97363 q 0.043,-0.633789 0.18261,-1.289062 0.13965,-0.676758 0.41895,-1.342774 0.27929,-0.6875 0.77344,-1.127929 0.51562,-0.451172 1.16015,-0.472657 z"
           style="font-family:Chapaza;-inkscape-font-specification:Chapaza;fill:#e5e5e5;fill-opacity:1"
           id="path18070" />
      </g>
    </g>
  </g>
</svg>
